<?xml version="1.0" encoding="UTF-8" standalone="no"?>
<!-- Created with Inkscape (http://www.inkscape.org/) -->

<svg
   xmlns:dc="http://purl.org/dc/elements/1.1/"
   xmlns:cc="http://creativecommons.org/ns#"
   xmlns:rdf="http://www.w3.org/1999/02/22-rdf-syntax-ns#"
   xmlns:svg="http://www.w3.org/2000/svg"
   xmlns="http://www.w3.org/2000/svg"
   xmlns:sodipodi="http://sodipodi.sourceforge.net/DTD/sodipodi-0.dtd"
   xmlns:inkscape="http://www.inkscape.org/namespaces/inkscape"
   version="1.1"
   id="svg48"
   xml:space="preserve"
   width="841.27997"
   height="394.55997"
   viewBox="0 0 841.27997 394.55997"
   sodipodi:docname="fcn.svg"
   inkscape:version="0.92.5 (2060ec1f9f, 2020-04-08)"><metadata
     id="metadata54"><rdf:RDF><cc:Work
         rdf:about=""><dc:format>image/svg+xml</dc:format><dc:type
           rdf:resource="http://purl.org/dc/dcmitype/StillImage" /><dc:title></dc:title></cc:Work></rdf:RDF></metadata><defs
     id="defs52"><clipPath
       clipPathUnits="userSpaceOnUse"
       id="clipPath64"><path
         d="M 0,0 H 2629.1665 V 1230.275 H 0 Z"
         id="path62"
         inkscape:connector-curvature="0"
         style="clip-rule:evenodd" /></clipPath><clipPath
       clipPathUnits="userSpaceOnUse"
       id="clipPath76"><path
         d="M 0,0 H 2629.1665 V 1230.275 H 0 Z"
         id="path74"
         inkscape:connector-curvature="0"
         style="clip-rule:evenodd" /></clipPath><clipPath
       clipPathUnits="userSpaceOnUse"
       id="clipPath88"><path
         d="M 0,0 H 2629.1665 V 1230.275 H 0 Z"
         id="path86"
         inkscape:connector-curvature="0" /></clipPath><clipPath
       clipPathUnits="userSpaceOnUse"
       id="clipPath94"><path
         d="M 0,0 H 2629.1665 V 1233.3976 H 0 Z"
         id="path92"
         inkscape:connector-curvature="0" /></clipPath><clipPath
       clipPathUnits="userSpaceOnUse"
       id="clipPath100"><path
         d="M 20.751028,14.27771 H 174.07663 V 1218.7681 H 20.751028 Z"
         id="path98"
         inkscape:connector-curvature="0" /></clipPath><clipPath
       clipPathUnits="userSpaceOnUse"
       id="clipPath106"><path
         d="M 20.751028,14.27771 H 174.07663 V 1218.7681 H 20.751028 Z"
         id="path104"
         inkscape:connector-curvature="0" /></clipPath><clipPath
       clipPathUnits="userSpaceOnUse"
       id="clipPath120"><path
         d="M 0,0 H 2629.1665 V 1230.275 H 0 Z"
         id="path118"
         inkscape:connector-curvature="0"
         style="clip-rule:evenodd" /></clipPath><clipPath
       clipPathUnits="userSpaceOnUse"
       id="clipPath134"><path
         d="M 0,0 H 2629.1665 V 1230.275 H 0 Z"
         id="path132"
         inkscape:connector-curvature="0" /></clipPath><clipPath
       clipPathUnits="userSpaceOnUse"
       id="clipPath140"><path
         d="M 0,0 H 2629.1665 V 1233.3976 H 0 Z"
         id="path138"
         inkscape:connector-curvature="0" /></clipPath><clipPath
       clipPathUnits="userSpaceOnUse"
       id="clipPath146"><path
         d="M 407.94177,181.23566 H 597.80908 V 1051.8285 H 407.94177 Z"
         id="path144"
         inkscape:connector-curvature="0" /></clipPath><clipPath
       clipPathUnits="userSpaceOnUse"
       id="clipPath152"><path
         d="M 407.94177,1013.8776 V 219.18658 c -3e-5,-5.0326 0.9635,-9.87368 2.89054,-14.52322 1.92703,-4.64952 4.67092,-8.75357 8.23162,-12.31215 3.5607,-3.55859 7.66718,-6.30083 12.31946,-8.22671 4.65229,-1.92589 9.49625,-2.88884 14.53186,-2.88884 h 113.92038 c 5.03559,0 9.87946,0.96293 14.53174,2.88882 4.65228,1.92589 8.75879,4.66814 12.31952,8.22673 3.56067,3.55858 6.3045,7.66264 8.23157,12.31217 1.927,4.64952 2.89056,9.4906 2.89062,14.5232 v 794.69102 c -6e-5,5.0325 -0.96362,9.8736 -2.89062,14.523 -1.92707,4.6496 -4.6709,8.7536 -8.23157,12.3123 -3.56073,3.5585 -7.66724,6.3008 -12.31952,8.2267 -4.65228,1.9259 -9.49615,2.8888 -14.53174,2.8889 H 445.91525 c -5.03561,-10e-5 -9.87957,-0.963 -14.53186,-2.8889 -4.65228,-1.9259 -8.75876,-4.6682 -12.31946,-8.2267 -3.5607,-3.5587 -6.30459,-7.6627 -8.23162,-12.3123 -1.92704,-4.6494 -2.89057,-9.4905 -2.89054,-14.523 z"
         id="path150"
         inkscape:connector-curvature="0" /></clipPath><clipPath
       clipPathUnits="userSpaceOnUse"
       id="clipPath166"><path
         d="M 0,0 H 2629.1665 V 1230.275 H 0 Z"
         id="path164"
         inkscape:connector-curvature="0"
         style="clip-rule:evenodd" /></clipPath><clipPath
       clipPathUnits="userSpaceOnUse"
       id="clipPath180"><path
         d="M 0,0 H 2629.1665 V 1230.275 H 0 Z"
         id="path178"
         inkscape:connector-curvature="0" /></clipPath><clipPath
       clipPathUnits="userSpaceOnUse"
       id="clipPath186"><path
         d="M 0,0 H 2629.1665 V 1233.3976 H 0 Z"
         id="path184"
         inkscape:connector-curvature="0" /></clipPath><clipPath
       clipPathUnits="userSpaceOnUse"
       id="clipPath192"><path
         d="M 583.19513,306.44342 H 773.06244 V 926.61304 H 583.19513 Z"
         id="path190"
         inkscape:connector-curvature="0" /></clipPath><clipPath
       clipPathUnits="userSpaceOnUse"
       id="clipPath198"><path
         d="M 583.19513,306.44342 H 773.06244 V 926.61304 H 583.19513 Z"
         id="path196"
         inkscape:connector-curvature="0" /></clipPath><clipPath
       clipPathUnits="userSpaceOnUse"
       id="clipPath212"><path
         d="M 0,0 H 2629.1665 V 1230.275 H 0 Z"
         id="path210"
         inkscape:connector-curvature="0"
         style="clip-rule:evenodd" /></clipPath><clipPath
       clipPathUnits="userSpaceOnUse"
       id="clipPath226"><path
         d="M 0,0 H 2629.1665 V 1230.275 H 0 Z"
         id="path224"
         inkscape:connector-curvature="0" /></clipPath><clipPath
       clipPathUnits="userSpaceOnUse"
       id="clipPath232"><path
         d="M 0,0 H 2629.1665 V 1233.3976 H 0 Z"
         id="path230"
         inkscape:connector-curvature="0" /></clipPath><clipPath
       clipPathUnits="userSpaceOnUse"
       id="clipPath238"><path
         d="m 2281.843,500.77203 h 153.3257 V 732.26397 H 2281.843 Z"
         id="path236"
         inkscape:connector-curvature="0" /></clipPath><clipPath
       clipPathUnits="userSpaceOnUse"
       id="clipPath244"><path
         d="m 2281.843,500.77203 h 153.3257 V 732.26397 H 2281.843 Z"
         id="path242"
         inkscape:connector-curvature="0" /></clipPath><clipPath
       clipPathUnits="userSpaceOnUse"
       id="clipPath258"><path
         d="M 0,0 H 2629.1665 V 1230.275 H 0 Z"
         id="path256"
         inkscape:connector-curvature="0"
         style="clip-rule:evenodd" /></clipPath><clipPath
       clipPathUnits="userSpaceOnUse"
       id="clipPath272"><path
         d="M 0,0 H 2629.1665 V 1230.275 H 0 Z"
         id="path270"
         inkscape:connector-curvature="0" /></clipPath><clipPath
       clipPathUnits="userSpaceOnUse"
       id="clipPath278"><path
         d="M 0,0 H 2629.1665 V 1233.3976 H 0 Z"
         id="path276"
         inkscape:connector-curvature="0" /></clipPath><clipPath
       clipPathUnits="userSpaceOnUse"
       id="clipPath284"><path
         d="m 2418.7446,362.51886 h 153.3257 v 508.00092 h -153.3257 z"
         id="path282"
         inkscape:connector-curvature="0" /></clipPath><clipPath
       clipPathUnits="userSpaceOnUse"
       id="clipPath290"><path
         d="m 2418.7446,362.51886 h 153.3257 v 508.00092 h -153.3257 z"
         id="path288"
         inkscape:connector-curvature="0" /></clipPath><clipPath
       clipPathUnits="userSpaceOnUse"
       id="clipPath304"><path
         d="M 0,0 H 2629.1665 V 1230.275 H 0 Z"
         id="path302"
         inkscape:connector-curvature="0"
         style="clip-rule:evenodd" /></clipPath><clipPath
       clipPathUnits="userSpaceOnUse"
       id="clipPath326"><path
         d="M 0,0 H 2629.1665 V 1230.275 H 0 Z"
         id="path324"
         inkscape:connector-curvature="0" /></clipPath><clipPath
       clipPathUnits="userSpaceOnUse"
       id="clipPath332"><path
         d="M 0,0 H 2629.1665 V 1233.3976 H 0 Z"
         id="path330"
         inkscape:connector-curvature="0" /></clipPath><clipPath
       clipPathUnits="userSpaceOnUse"
       id="clipPath338"><path
         d="m 1037.5365,181.23566 h 189.8673 v 870.59284 h -189.8673 z"
         id="path336"
         inkscape:connector-curvature="0" /></clipPath><clipPath
       clipPathUnits="userSpaceOnUse"
       id="clipPath344"><path
         d="M 1037.5365,1013.8776 V 219.18658 c -10e-5,-5.0326 0.9634,-9.87368 2.8904,-14.52322 1.9271,-4.64952 4.671,-8.75357 8.2317,-12.31215 3.5606,-3.55859 7.6672,-6.30083 12.3196,-8.22671 4.6522,-1.92589 9.4962,-2.88884 14.5318,-2.88884 h 113.9204 c 5.0355,0 9.8794,0.96293 14.5316,2.88882 4.6523,1.92589 8.7588,4.66814 12.3196,8.22673 3.5607,3.55858 6.3045,7.66264 8.2315,12.31217 1.9271,4.64952 2.8906,9.4906 2.8907,14.5232 v 794.69102 c -10e-5,5.0325 -0.9636,9.8736 -2.8907,14.523 -1.927,4.6496 -4.6708,8.7536 -8.2315,12.3123 -3.5608,3.5585 -7.6672,6.3008 -12.3194,8.2267 -4.6524,1.9259 -9.4963,2.8888 -14.5318,2.8889 H 1075.51 c -5.0356,-10e-5 -9.8796,-0.963 -14.5318,-2.8889 -4.6524,-1.9259 -8.759,-4.6682 -12.3196,-8.2267 -3.5607,-3.5587 -6.3046,-7.6627 -8.2317,-12.3123 -1.927,-4.6494 -2.8905,-9.4905 -2.8904,-14.523 z"
         id="path342"
         inkscape:connector-curvature="0" /></clipPath><clipPath
       clipPathUnits="userSpaceOnUse"
       id="clipPath358"><path
         d="M 0,0 H 2629.1665 V 1230.275 H 0 Z"
         id="path356"
         inkscape:connector-curvature="0"
         style="clip-rule:evenodd" /></clipPath><clipPath
       clipPathUnits="userSpaceOnUse"
       id="clipPath372"><path
         d="M 0,0 H 2629.1665 V 1230.275 H 0 Z"
         id="path370"
         inkscape:connector-curvature="0" /></clipPath><clipPath
       clipPathUnits="userSpaceOnUse"
       id="clipPath378"><path
         d="M 0,0 H 2629.1665 V 1233.3976 H 0 Z"
         id="path376"
         inkscape:connector-curvature="0" /></clipPath><clipPath
       clipPathUnits="userSpaceOnUse"
       id="clipPath384"><path
         d="m 1212.946,306.44342 h 189.8674 V 926.61304 H 1212.946 Z"
         id="path382"
         inkscape:connector-curvature="0" /></clipPath><clipPath
       clipPathUnits="userSpaceOnUse"
       id="clipPath390"><path
         d="m 1212.946,306.44342 h 189.8674 V 926.61304 H 1212.946 Z"
         id="path388"
         inkscape:connector-curvature="0" /></clipPath><clipPath
       clipPathUnits="userSpaceOnUse"
       id="clipPath404"><path
         d="M 0,0 H 2629.1665 V 1230.275 H 0 Z"
         id="path402"
         inkscape:connector-curvature="0"
         style="clip-rule:evenodd" /></clipPath><clipPath
       clipPathUnits="userSpaceOnUse"
       id="clipPath418"><path
         d="M 0,0 H 2629.1665 V 1230.275 H 0 Z"
         id="path416"
         inkscape:connector-curvature="0" /></clipPath><clipPath
       clipPathUnits="userSpaceOnUse"
       id="clipPath424"><path
         d="M 0,0 H 2629.1665 V 1233.3976 H 0 Z"
         id="path422"
         inkscape:connector-curvature="0" /></clipPath><clipPath
       clipPathUnits="userSpaceOnUse"
       id="clipPath430"><path
         d="m 1667.4124,181.23566 h 189.8673 v 870.59284 h -189.8673 z"
         id="path428"
         inkscape:connector-curvature="0" /></clipPath><clipPath
       clipPathUnits="userSpaceOnUse"
       id="clipPath436"><path
         d="M 1667.4124,1013.8776 V 219.18658 c -2e-4,-5.0326 0.9632,-9.87368 2.8903,-14.52322 1.927,-4.64952 4.6709,-8.75357 8.2317,-12.31215 3.5606,-3.55859 7.667,-6.30083 12.3192,-8.22671 4.6524,-1.92589 9.4965,-2.88884 14.5323,-2.88884 h 113.9203 c 5.0355,0 9.8792,0.96293 14.5314,2.88882 4.6524,1.92589 8.759,4.66814 12.3199,8.22673 3.5605,3.55858 6.3044,7.66264 8.2315,12.31217 1.9269,4.64952 2.8905,9.4906 2.8907,14.5232 v 794.69102 c -2e-4,5.0325 -0.9638,9.8736 -2.8908,14.523 -1.9271,4.6496 -4.6709,8.7536 -8.2316,12.3123 -3.5607,3.5585 -7.6673,6.3008 -12.3195,8.2267 -4.6523,1.9259 -9.4961,2.8888 -14.5316,2.8889 h -113.9203 c -5.0358,-10e-5 -9.8799,-0.963 -14.5323,-2.8889 -4.6523,-1.9259 -8.7588,-4.6682 -12.3193,-8.2267 -3.5607,-3.5587 -6.3046,-7.6627 -8.2316,-12.3123 -1.9271,-4.6494 -2.8905,-9.4905 -2.8903,-14.523 z"
         id="path434"
         inkscape:connector-curvature="0" /></clipPath><clipPath
       clipPathUnits="userSpaceOnUse"
       id="clipPath450"><path
         d="M 0,0 H 2629.1665 V 1230.275 H 0 Z"
         id="path448"
         inkscape:connector-curvature="0"
         style="clip-rule:evenodd" /></clipPath><clipPath
       clipPathUnits="userSpaceOnUse"
       id="clipPath464"><path
         d="M 0,0 H 2629.1665 V 1230.275 H 0 Z"
         id="path462"
         inkscape:connector-curvature="0" /></clipPath><clipPath
       clipPathUnits="userSpaceOnUse"
       id="clipPath470"><path
         d="M 0,0 H 2629.1665 V 1233.3976 H 0 Z"
         id="path468"
         inkscape:connector-curvature="0" /></clipPath><clipPath
       clipPathUnits="userSpaceOnUse"
       id="clipPath476"><path
         d="m 1842.6656,306.44342 h 189.8673 v 620.16962 h -189.8673 z"
         id="path474"
         inkscape:connector-curvature="0" /></clipPath><clipPath
       clipPathUnits="userSpaceOnUse"
       id="clipPath482"><path
         d="m 1842.6656,306.44342 h 189.8673 v 620.16962 h -189.8673 z"
         id="path480"
         inkscape:connector-curvature="0" /></clipPath><clipPath
       clipPathUnits="userSpaceOnUse"
       id="clipPath496"><path
         d="M 0,0 H 2629.1665 V 1230.275 H 0 Z"
         id="path494"
         inkscape:connector-curvature="0"
         style="clip-rule:evenodd" /></clipPath><clipPath
       clipPathUnits="userSpaceOnUse"
       id="clipPath534"><path
         d="M 0,0 H 2629.1665 V 1230.275 H 0 Z"
         id="path532"
         inkscape:connector-curvature="0" /></clipPath><clipPath
       clipPathUnits="userSpaceOnUse"
       id="clipPath540"><path
         d="M 0,0 H 2629.1665 V 1233.3976 H 0 Z"
         id="path538"
         inkscape:connector-curvature="0" /></clipPath><clipPath
       clipPathUnits="userSpaceOnUse"
       id="clipPath546"><path
         d="m 2199.2571,306.45013 h 414.1792 v 620.16962 h -414.1792 z"
         id="path544"
         inkscape:connector-curvature="0" /></clipPath><clipPath
       clipPathUnits="userSpaceOnUse"
       id="clipPath552"><path
         d="M 2199.2571,843.83307 V 389.23685 c -3e-4,-5.43589 0.5303,-10.81952 1.5915,-16.15094 1.0611,-5.33139 2.6324,-10.50815 4.7137,-15.53022 2.0813,-5.02206 4.633,-9.79299 7.655,-14.31274 3.0217,-4.51974 6.4558,-8.70145 10.3017,-12.54514 3.846,-3.84375 8.0303,-7.27563 12.5525,-10.29562 4.5225,-3.01999 9.2962,-5.5701 14.3213,-7.6503 5.0252,-2.0802 10.2049,-3.65054 15.5393,-4.71103 5.3347,-1.06045 10.7217,-1.5907 16.1609,-1.59073 h 248.5073 c 5.439,3e-5 10.8257,0.53025 16.1602,1.5907 5.3347,1.06049 10.5144,2.63083 15.5395,4.71103 5.025,2.0802 9.7986,4.63031 14.3211,7.6503 4.5225,3.01999 8.7068,6.45187 12.553,10.29559 3.8459,3.84372 7.28,8.02543 10.3017,12.54517 3.0218,4.51974 5.5733,9.29068 7.6548,14.31274 2.0816,5.02207 3.6528,10.19883 4.7139,15.53022 1.0613,5.33145 1.5918,10.71508 1.5918,16.15097 v 454.59622 c 0,5.43585 -0.5305,10.81946 -1.5918,16.15082 -1.0611,5.33136 -2.6323,10.50811 -4.7139,15.53021 -2.0815,5.02209 -4.633,9.79303 -7.6548,14.31274 -3.0217,4.51972 -6.4558,8.70148 -10.3017,12.54523 -3.8462,3.84369 -8.0305,7.27557 -12.553,10.29553 -4.5225,3.01996 -9.2961,5.57007 -14.3211,7.65027 -5.0251,2.0802 -10.2048,3.65057 -15.5393,4.71106 -5.3347,1.06055 -10.7214,1.59082 -16.1604,1.59082 H 2282.093 c -5.4392,0 -10.8262,-0.53027 -16.1609,-1.59076 -5.3344,-1.06048 -10.5141,-2.63086 -15.539,-4.71106 -5.0252,-2.08026 -9.7989,-4.63037 -14.3216,-7.65033 -4.5222,-3.01996 -8.7065,-6.45184 -12.5525,-10.29553 -3.8459,-3.84375 -7.28,-8.02551 -10.3017,-12.54523 -3.0217,-4.51971 -5.5735,-9.29065 -7.6548,-14.31274 -2.0813,-5.0221 -3.6526,-10.19885 -4.7139,-15.53021 -1.0612,-5.33136 -1.5918,-10.71497 -1.5915,-16.15082 z"
         id="path550"
         inkscape:connector-curvature="0" /></clipPath></defs><sodipodi:namedview
     pagecolor="#ffffff"
     bordercolor="#666666"
     borderopacity="1"
     objecttolerance="10"
     gridtolerance="10"
     guidetolerance="10"
     inkscape:pageopacity="0"
     inkscape:pageshadow="2"
     inkscape:window-width="2560"
     inkscape:window-height="1322"
     id="namedview50"
     showgrid="false"
     inkscape:zoom="1.4139169"
     inkscape:cx="397.4733"
     inkscape:cy="222.5153"
     inkscape:window-x="0"
     inkscape:window-y="27"
     inkscape:window-maximized="1"
     inkscape:current-layer="g56" /><g
     id="g56"
     inkscape:groupmode="layer"
     inkscape:label="fcn"
     transform="matrix(0.31999998,0,0,0.31999998,0,6.530666e-6)"><g
       id="g58"><g
         id="g60"
         clip-path="url(#clipPath64)"><g
           id="g66"
           transform="scale(3.1225255)"><path
             d="M 0,0 H 842 V 395 H 0 Z"
             style="fill:#ffffff;fill-opacity:1;fill-rule:nonzero;stroke:none"
             id="path68"
             inkscape:connector-curvature="0" /></g></g></g><g
       id="g70"><g
         id="g72"
         clip-path="url(#clipPath76)"><g
           id="g78"
           transform="scale(3.1225255,3.1206737)"><path
             d="M 0,0 H 842 V 395.23438 H 0 Z"
             style="fill:#ffffff;fill-opacity:1;fill-rule:nonzero;stroke:none"
             id="path80"
             inkscape:connector-curvature="0" /></g></g></g><g
       id="g82"><g
         id="g84"
         clip-path="url(#clipPath88)"><g
           id="g90"
           clip-path="url(#clipPath94)"><g
             id="g96"
             clip-path="url(#clipPath100)"><g
               id="g102"
               clip-path="url(#clipPath106)"><g
                 id="g108"
                 transform="matrix(0,-1.4801755,1.4810537,0,20.751028,1218.7681)"><path
                   d="M 0,0 H 813.74835 V 103.52468 H 0 Z"
                   style="fill:#f2f6ff;fill-opacity:1;fill-rule:nonzero;stroke:none"
                   id="path110"
                   inkscape:connector-curvature="0" /><path
                   d="M 0,0 H 813.74835 V 103.52468 H 0 Z"
                   style="fill:none;stroke:#1a1a1a;stroke-width:1;stroke-linecap:butt;stroke-linejoin:miter;stroke-miterlimit:10;stroke-dasharray:none;stroke-opacity:1"
                   id="path112"
                   inkscape:connector-curvature="0" /></g></g></g></g></g></g><g
       id="g114"><g
         id="g116"
         clip-path="url(#clipPath120)"><g
           id="g122"
           transform="matrix(0,-1.4799347,1.4810537,0,28.417309,1211.0327)"><text
             transform="translate(305.69797,68.086105)"
             style="font-variant:normal;font-weight:normal;font-size:64px;font-family:Roboto;-inkscape-font-specification:RobotoMono-Regular;writing-mode:lr-tb;fill:#1a1a1a;fill-opacity:1;fill-rule:nonzero;stroke:none"
             id="text126"><tspan
               x="0 38.40625 76.8125 115.21875 153.625"
               y="0"
               sodipodi:role="line"
               id="tspan124">Input</tspan></text>
</g></g></g><g
       id="g128"><g
         id="g130"
         clip-path="url(#clipPath134)"><g
           id="g136"
           clip-path="url(#clipPath140)"><g
             id="g142"
             clip-path="url(#clipPath146)"><g
               id="g148"
               clip-path="url(#clipPath152)"><g
                 id="g154"
                 transform="matrix(0,-1.4801755,1.4810537,0,407.94177,1051.8285)"><path
                   d="M 25.639494,0 H 562.52917 c 1.68348,0 3.35083,0.16421852 5.00202,0.49265561 1.65112,0.32843711 3.25439,0.81478179 4.80975,1.45903439 1.55536,0.6442525 3.0329,1.4340334 4.43268,2.369343 1.39984,0.9353099 2.69495,1.9981766 3.88538,3.1886005 1.19043,1.1904226 2.25323,2.4855295 3.18847,3.8853195 0.93537,1.39979 1.72516,2.877366 2.36945,4.43273 0.64423,1.555364 1.13061,3.158628 1.45904,4.809793 0.32843,1.651167 0.49268,3.318506 0.49268,5.002018 v 76.918476 c 0,1.68351 -0.16425,3.35084 -0.49274,5.002 -0.32843,1.65117 -0.81475,3.25443 -1.45904,4.8098 -0.64423,1.55536 -1.43402,3.03293 -2.36939,4.43272 -0.93524,1.39979 -1.99804,2.6949 -3.18847,3.88533 -1.19043,1.19042 -2.48554,2.25328 -3.88538,3.18859 -1.39978,0.93531 -2.87738,1.72509 -4.43274,2.36935 -1.55536,0.64425 -3.15857,1.1306 -4.80969,1.45904 -1.65119,0.32843 -3.31854,0.49266 -5.00202,0.49266 H 25.639494 c -1.683512,0 -3.350851,-0.16421 -5.002018,-0.49266 -1.651165,-0.32844 -3.254431,-0.81479 -4.809794,-1.45904 -1.555364,-0.64426 -3.03294,-1.43404 -4.43273,-2.36934 -1.399789,-0.93531 -2.6948959,-1.99818 -3.8853185,-3.1886 -1.1904239,-1.19043 -2.2532906,-2.48554 -3.1886,-3.88533 C 3.3857236,115.4027 2.5959425,113.92513 1.95169,112.36977 1.3074374,110.8144 0.82109272,109.21114 0.49265561,107.55997 0.16421852,105.90881 0,104.24148 0,102.55797 V 25.639494 C 0,23.955982 0.16421852,22.288643 0.49265561,20.637476 0.82109272,18.986311 1.3074374,17.383045 1.95169,15.827682 2.5959425,14.272318 3.3857234,12.794742 4.321033,11.394952 5.2563429,9.995163 6.3192096,8.7000561 7.5096335,7.5096335 8.7000561,6.3192096 9.995163,5.2563429 11.394953,4.3210335 12.794743,3.3857236 14.272319,2.5959425 15.827683,1.95169 17.383047,1.3074374 18.986311,0.82109272 20.637476,0.49265561 22.288643,0.16421852 23.955982,0 25.639494,0 Z"
                   style="fill:#f2f6ff;fill-opacity:1;fill-rule:evenodd;stroke:none"
                   id="path156"
                   inkscape:connector-curvature="0" /><path
                   d="M 25.639494,0 H 562.52917 c 1.68348,0 3.35083,0.16421852 5.00202,0.49265561 1.65112,0.32843711 3.25439,0.81478179 4.80975,1.45903439 1.55536,0.6442525 3.0329,1.4340334 4.43268,2.369343 1.39984,0.9353099 2.69495,1.9981766 3.88538,3.1886005 1.19043,1.1904226 2.25323,2.4855295 3.18847,3.8853195 0.93537,1.39979 1.72516,2.877366 2.36945,4.43273 0.64423,1.555364 1.13061,3.158628 1.45904,4.809793 0.32843,1.651167 0.49268,3.318506 0.49268,5.002018 v 76.918476 c 0,1.68351 -0.16425,3.35084 -0.49274,5.002 -0.32843,1.65117 -0.81475,3.25443 -1.45904,4.8098 -0.64423,1.55536 -1.43402,3.03293 -2.36939,4.43272 -0.93524,1.39979 -1.99804,2.6949 -3.18847,3.88533 -1.19043,1.19042 -2.48554,2.25328 -3.88538,3.18859 -1.39978,0.93531 -2.87738,1.72509 -4.43274,2.36935 -1.55536,0.64425 -3.15857,1.1306 -4.80969,1.45904 -1.65119,0.32843 -3.31854,0.49266 -5.00202,0.49266 H 25.639494 c -1.683512,0 -3.350851,-0.16421 -5.002018,-0.49266 -1.651165,-0.32844 -3.254431,-0.81479 -4.809794,-1.45904 -1.555364,-0.64426 -3.03294,-1.43404 -4.43273,-2.36934 -1.399789,-0.93531 -2.6948959,-1.99818 -3.8853185,-3.1886 -1.1904239,-1.19043 -2.2532906,-2.48554 -3.1886,-3.88533 C 3.3857236,115.4027 2.5959425,113.92513 1.95169,112.36977 1.3074374,110.8144 0.82109272,109.21114 0.49265561,107.55997 0.16421852,105.90881 0,104.24148 0,102.55797 V 25.639494 C 0,23.955982 0.16421852,22.288643 0.49265561,20.637476 0.82109272,18.986311 1.3074374,17.383045 1.95169,15.827682 2.5959425,14.272318 3.3857234,12.794742 4.321033,11.394952 5.2563429,9.995163 6.3192096,8.7000561 7.5096335,7.5096335 8.7000561,6.3192096 9.995163,5.2563429 11.394953,4.3210335 12.794743,3.3857236 14.272319,2.5959425 15.827683,1.95169 17.383047,1.3074374 18.986311,0.82109272 20.637476,0.49265561 22.288643,0.16421852 23.955982,0 25.639494,0 Z"
                   style="fill:none;stroke:#1a1a1a;stroke-width:1;stroke-linecap:butt;stroke-linejoin:miter;stroke-miterlimit:10;stroke-dasharray:none;stroke-opacity:1"
                   id="path158"
                   inkscape:connector-curvature="0" /></g></g></g></g></g></g><g
       id="g160"><g
         id="g162"
         clip-path="url(#clipPath166)"><g
           id="g168"
           transform="matrix(0,-1.4799347,1.4810537,0,417.43515,1042.3315)"><text
             transform="translate(38.074448,79.188858)"
             style="font-variant:normal;font-weight:normal;font-size:64px;font-family:Roboto;-inkscape-font-specification:RobotoMono-Regular;writing-mode:lr-tb;fill:#1a1a1a;fill-opacity:1;fill-rule:nonzero;stroke:none"
             id="text172"><tspan
               x="0 38.40625 76.8125 115.21875 153.625 192.03125 230.4375 268.84375 307.25 345.65625 384.0625 422.46875 460.875"
               y="0"
               sodipodi:role="line"
               id="tspan170">Conv1D(64, 3)</tspan></text>
</g></g></g><g
       id="g174"><g
         id="g176"
         clip-path="url(#clipPath180)"><g
           id="g182"
           clip-path="url(#clipPath186)"><g
             id="g188"
             clip-path="url(#clipPath192)"><g
               id="g194"
               clip-path="url(#clipPath198)"><g
                 id="g200"
                 transform="matrix(0,-1.4801755,1.4810537,0,583.19513,926.61304)"><path
                   d="M 0,0 H 418.98386 V 128.19746 H 0 Z"
                   style="fill:#f2f6ff;fill-opacity:1;fill-rule:nonzero;stroke:none"
                   id="path202"
                   inkscape:connector-curvature="0" /><path
                   d="M 0,0 H 418.98386 V 128.19746 H 0 Z"
                   style="fill:none;stroke:#1a1a1a;stroke-width:1;stroke-linecap:butt;stroke-linejoin:miter;stroke-miterlimit:10;stroke-dasharray:none;stroke-opacity:1"
                   id="path204"
                   inkscape:connector-curvature="0" /></g></g></g></g></g></g><g
       id="g206"><g
         id="g208"
         clip-path="url(#clipPath212)"><g
           id="g214"
           transform="matrix(0,-1.4799347,1.4810537,0,592.68848,917.11804)"><text
             transform="translate(30.282042,79.188858)"
             style="font-variant:normal;font-weight:normal;font-size:64px;font-family:Roboto;-inkscape-font-specification:RobotoMono-Regular;writing-mode:lr-tb;fill:#1a1a1a;fill-opacity:1;fill-rule:nonzero;stroke:none"
             id="text218"><tspan
               x="0 38.40625 76.8125 115.21875 153.625 192.03125 230.4375 268.84375 307.25"
               y="0"
               sodipodi:role="line"
               id="tspan216">BN + ReLU</tspan></text>
</g></g></g><g
       id="g220"><g
         id="g222"
         clip-path="url(#clipPath226)"><g
           id="g228"
           clip-path="url(#clipPath232)"><g
             id="g234"
             clip-path="url(#clipPath238)"><g
               id="g240"
               clip-path="url(#clipPath244)"><g
                 id="g246"
                 transform="matrix(0,-1.4801755,1.4810537,0,2281.843,732.26398)"><path
                   d="M 0,0 H 156.39493 V 103.52468 H 0 Z"
                   style="fill:#f2f6ff;fill-opacity:1;fill-rule:nonzero;stroke:none"
                   id="path248"
                   inkscape:connector-curvature="0" /><path
                   d="M 0,0 H 156.39493 V 103.52468 H 0 Z"
                   style="fill:none;stroke:#1a1a1a;stroke-width:1;stroke-linecap:butt;stroke-linejoin:miter;stroke-miterlimit:10;stroke-dasharray:none;stroke-opacity:1"
                   id="path250"
                   inkscape:connector-curvature="0" /></g></g></g></g></g></g><g
       id="g252"><g
         id="g254"
         clip-path="url(#clipPath258)"><g
           id="g260"
           transform="matrix(0,-1.4802736,1.4810537,0,2289.5093,724.60315)"><text
             transform="translate(10.204567,66.586105)"
             style="font-variant:normal;font-weight:normal;font-size:64px;font-family:'Open Sans';-inkscape-font-specification:OpenSans-Regular;writing-mode:lr-tb;fill:#1a1a1a;fill-opacity:1;fill-rule:nonzero;stroke:none"
             id="text264"><tspan
               x="0 46.59375 87.09375"
               y="0"
               sodipodi:role="line"
               id="tspan262">GAP</tspan></text>
</g></g></g><g
       id="g266"><g
         id="g268"
         clip-path="url(#clipPath272)"><g
           id="g274"
           clip-path="url(#clipPath278)"><g
             id="g280"
             clip-path="url(#clipPath284)"><g
               id="g286"
               clip-path="url(#clipPath290)"><g
                 id="g292"
                 transform="matrix(0,-1.4801755,1.4810537,0,2418.7446,870.51978)"><path
                   d="M 0,0 H 343.20316 V 103.52468 H 0 Z"
                   style="fill:#f2f6ff;fill-opacity:1;fill-rule:nonzero;stroke:none"
                   id="path294"
                   inkscape:connector-curvature="0" /><path
                   d="M 0,0 H 343.20316 V 103.52468 H 0 Z"
                   style="fill:none;stroke:#1a1a1a;stroke-width:1;stroke-linecap:butt;stroke-linejoin:miter;stroke-miterlimit:10;stroke-dasharray:none;stroke-opacity:1"
                   id="path296"
                   inkscape:connector-curvature="0" /></g></g></g></g></g></g><g
       id="g298"><g
         id="g300"
         clip-path="url(#clipPath304)"><g
           id="g306"
           transform="matrix(0,-1.4801626,1.4810537,0,2426.4109,862.85736)"><text
             transform="translate(46.442013,66.586105)"
             style="font-variant:normal;font-weight:normal;font-size:64px;font-family:'Open Sans';-inkscape-font-specification:OpenSans-Regular;writing-mode:lr-tb;fill:#1a1a1a;fill-opacity:1;fill-rule:nonzero;stroke:none"
             id="text310"><tspan
               x="0 35.125 51.3125 86.375 145.90625 184.5625 200.75"
               y="0"
               sodipodi:role="line"
               id="tspan308">Sigmoid</tspan></text>
</g><g
           id="g312"
           transform="matrix(1.4810537,0,0,1.4801755,174.0808,616.52032)"><path
             d="M 0.79999995,0 C 52.239338,0 77.959007,0 129.39835,0"
             style="fill:none;stroke:#333333;stroke-width:1;stroke-linecap:butt;stroke-linejoin:miter;stroke-miterlimit:10;stroke-dasharray:none;stroke-opacity:1"
             id="path314"
             inkscape:connector-curvature="0" /></g><g
           id="g316"
           transform="matrix(1.4810537,0,0,1.4801755,407.95023,616.52032)"><path
             d="M -35.636364,-17.818182 0,0 -35.636364,17.818182 Z"
             style="fill:#333333;fill-opacity:1;fill-rule:nonzero;stroke:none"
             id="path318"
             inkscape:connector-curvature="0" /></g></g></g><g
       id="g320"><g
         id="g322"
         clip-path="url(#clipPath326)"><g
           id="g328"
           clip-path="url(#clipPath332)"><g
             id="g334"
             clip-path="url(#clipPath338)"><g
               id="g340"
               clip-path="url(#clipPath344)"><g
                 id="g346"
                 transform="matrix(0,-1.4801755,1.4810537,0,1037.5365,1051.8285)"><path
                   d="M 25.639494,0 H 562.52917 c 1.68348,0 3.35083,0.16421852 5.00202,0.49265561 1.65112,0.32843711 3.25439,0.81478179 4.80975,1.45903439 1.55536,0.6442525 3.0329,1.4340334 4.43268,2.369343 1.39984,0.9353099 2.69495,1.9981766 3.88538,3.1886005 1.19043,1.1904226 2.25323,2.4855295 3.18847,3.8853195 0.93537,1.39979 1.72516,2.877366 2.36945,4.43273 0.64423,1.555364 1.13061,3.158628 1.45904,4.809793 0.32843,1.651167 0.49268,3.318506 0.49268,5.002018 v 76.918476 c 0,1.68351 -0.16425,3.35084 -0.49274,5.002 -0.32843,1.65117 -0.81475,3.25443 -1.45904,4.8098 -0.64423,1.55536 -1.43402,3.03293 -2.36939,4.43272 -0.93524,1.39979 -1.99804,2.6949 -3.18847,3.88533 -1.19043,1.19042 -2.48554,2.25328 -3.88538,3.18859 -1.39978,0.93531 -2.87738,1.72509 -4.43274,2.36935 -1.55536,0.64425 -3.15857,1.1306 -4.80969,1.45904 -1.65119,0.32843 -3.31854,0.49266 -5.00202,0.49266 H 25.639494 c -1.683512,0 -3.350851,-0.16421 -5.002018,-0.49266 -1.651165,-0.32844 -3.254431,-0.81479 -4.809794,-1.45904 -1.555364,-0.64426 -3.03294,-1.43404 -4.43273,-2.36934 -1.399789,-0.93531 -2.6948959,-1.99818 -3.8853185,-3.1886 -1.1904239,-1.19043 -2.2532906,-2.48554 -3.1886,-3.88533 C 3.3857236,115.4027 2.5959425,113.92513 1.95169,112.36977 1.3074374,110.8144 0.82109272,109.21114 0.49265561,107.55997 0.16421852,105.90881 0,104.24148 0,102.55797 V 25.639494 C 0,23.955982 0.16421852,22.288643 0.49265561,20.637476 0.82109272,18.986311 1.3074374,17.383045 1.95169,15.827682 2.5959425,14.272318 3.3857234,12.794742 4.321033,11.394952 5.2563429,9.995163 6.3192096,8.7000561 7.5096335,7.5096335 8.7000561,6.3192096 9.995163,5.2563429 11.394953,4.3210335 12.794743,3.3857236 14.272319,2.5959425 15.827683,1.95169 17.383047,1.3074374 18.986311,0.82109272 20.637476,0.49265561 22.288643,0.16421852 23.955982,0 25.639494,0 Z"
                   style="fill:#f2f6ff;fill-opacity:1;fill-rule:evenodd;stroke:none"
                   id="path348"
                   inkscape:connector-curvature="0" /><path
                   d="M 25.639494,0 H 562.52917 c 1.68348,0 3.35083,0.16421852 5.00202,0.49265561 1.65112,0.32843711 3.25439,0.81478179 4.80975,1.45903439 1.55536,0.6442525 3.0329,1.4340334 4.43268,2.369343 1.39984,0.9353099 2.69495,1.9981766 3.88538,3.1886005 1.19043,1.1904226 2.25323,2.4855295 3.18847,3.8853195 0.93537,1.39979 1.72516,2.877366 2.36945,4.43273 0.64423,1.555364 1.13061,3.158628 1.45904,4.809793 0.32843,1.651167 0.49268,3.318506 0.49268,5.002018 v 76.918476 c 0,1.68351 -0.16425,3.35084 -0.49274,5.002 -0.32843,1.65117 -0.81475,3.25443 -1.45904,4.8098 -0.64423,1.55536 -1.43402,3.03293 -2.36939,4.43272 -0.93524,1.39979 -1.99804,2.6949 -3.18847,3.88533 -1.19043,1.19042 -2.48554,2.25328 -3.88538,3.18859 -1.39978,0.93531 -2.87738,1.72509 -4.43274,2.36935 -1.55536,0.64425 -3.15857,1.1306 -4.80969,1.45904 -1.65119,0.32843 -3.31854,0.49266 -5.00202,0.49266 H 25.639494 c -1.683512,0 -3.350851,-0.16421 -5.002018,-0.49266 -1.651165,-0.32844 -3.254431,-0.81479 -4.809794,-1.45904 -1.555364,-0.64426 -3.03294,-1.43404 -4.43273,-2.36934 -1.399789,-0.93531 -2.6948959,-1.99818 -3.8853185,-3.1886 -1.1904239,-1.19043 -2.2532906,-2.48554 -3.1886,-3.88533 C 3.3857236,115.4027 2.5959425,113.92513 1.95169,112.36977 1.3074374,110.8144 0.82109272,109.21114 0.49265561,107.55997 0.16421852,105.90881 0,104.24148 0,102.55797 V 25.639494 C 0,23.955982 0.16421852,22.288643 0.49265561,20.637476 0.82109272,18.986311 1.3074374,17.383045 1.95169,15.827682 2.5959425,14.272318 3.3857234,12.794742 4.321033,11.394952 5.2563429,9.995163 6.3192096,8.7000561 7.5096335,7.5096335 8.7000561,6.3192096 9.995163,5.2563429 11.394953,4.3210335 12.794743,3.3857236 14.272319,2.5959425 15.827683,1.95169 17.383047,1.3074374 18.986311,0.82109272 20.637476,0.49265561 22.288643,0.16421852 23.955982,0 25.639494,0 Z"
                   style="fill:none;stroke:#1a1a1a;stroke-width:1;stroke-linecap:butt;stroke-linejoin:miter;stroke-miterlimit:10;stroke-dasharray:none;stroke-opacity:1"
                   id="path350"
                   inkscape:connector-curvature="0" /></g></g></g></g></g></g><g
       id="g352"><g
         id="g354"
         clip-path="url(#clipPath358)"><g
           id="g360"
           transform="matrix(0,-1.4799347,1.4810537,0,1047.03,1042.3315)"><text
             transform="translate(38.074448,79.188858)"
             style="font-variant:normal;font-weight:normal;font-size:64px;font-family:Roboto;-inkscape-font-specification:RobotoMono-Regular;writing-mode:lr-tb;fill:#1a1a1a;fill-opacity:1;fill-rule:nonzero;stroke:none"
             id="text364"><tspan
               x="0 38.40625 76.8125 115.21875 153.625 192.03125 230.4375 268.84375 307.25 345.65625 384.0625 422.46875 460.875"
               y="0"
               sodipodi:role="line"
               id="tspan362">Conv1D(64, 3)</tspan></text>
</g></g></g><g
       id="g366"><g
         id="g368"
         clip-path="url(#clipPath372)"><g
           id="g374"
           clip-path="url(#clipPath378)"><g
             id="g380"
             clip-path="url(#clipPath384)"><g
               id="g386"
               clip-path="url(#clipPath390)"><g
                 id="g392"
                 transform="matrix(0,-1.4801755,1.4810537,0,1212.946,926.61304)"><path
                   d="M 0,0 H 418.98386 V 128.19746 H 0 Z"
                   style="fill:#f2f6ff;fill-opacity:1;fill-rule:nonzero;stroke:none"
                   id="path394"
                   inkscape:connector-curvature="0" /><path
                   d="M 0,0 H 418.98386 V 128.19746 H 0 Z"
                   style="fill:none;stroke:#1a1a1a;stroke-width:1;stroke-linecap:butt;stroke-linejoin:miter;stroke-miterlimit:10;stroke-dasharray:none;stroke-opacity:1"
                   id="path396"
                   inkscape:connector-curvature="0" /></g></g></g></g></g></g><g
       id="g398"><g
         id="g400"
         clip-path="url(#clipPath404)"><g
           id="g406"
           transform="matrix(0,-1.4799347,1.4810537,0,1222.4393,917.11804)"><text
             transform="translate(30.282042,79.188858)"
             style="font-variant:normal;font-weight:normal;font-size:64px;font-family:Roboto;-inkscape-font-specification:RobotoMono-Regular;writing-mode:lr-tb;fill:#1a1a1a;fill-opacity:1;fill-rule:nonzero;stroke:none"
             id="text410"><tspan
               x="0 38.40625 76.8125 115.21875 153.625 192.03125 230.4375 268.84375 307.25"
               y="0"
               sodipodi:role="line"
               id="tspan408">BN + ReLU</tspan></text>
</g></g></g><g
       id="g412"><g
         id="g414"
         clip-path="url(#clipPath418)"><g
           id="g420"
           clip-path="url(#clipPath424)"><g
             id="g426"
             clip-path="url(#clipPath430)"><g
               id="g432"
               clip-path="url(#clipPath436)"><g
                 id="g438"
                 transform="matrix(0,-1.4801755,1.4810537,0,1667.4124,1051.8285)"><path
                   d="M 25.639494,0 H 562.52917 c 1.68348,0 3.35083,0.16421852 5.00202,0.49265561 1.65112,0.32843711 3.25439,0.81478179 4.80975,1.45903439 1.55536,0.6442525 3.0329,1.4340334 4.43268,2.369343 1.39984,0.9353099 2.69495,1.9981766 3.88538,3.1886005 1.19043,1.1904226 2.25323,2.4855295 3.18847,3.8853195 0.93537,1.39979 1.72516,2.877366 2.36945,4.43273 0.64423,1.555364 1.13061,3.158628 1.45904,4.809793 0.32843,1.651167 0.49268,3.318506 0.49268,5.002018 v 76.918476 c 0,1.68351 -0.16425,3.35084 -0.49274,5.002 -0.32843,1.65117 -0.81475,3.25443 -1.45904,4.8098 -0.64423,1.55536 -1.43402,3.03293 -2.36939,4.43272 -0.93524,1.39979 -1.99804,2.6949 -3.18847,3.88533 -1.19043,1.19042 -2.48554,2.25328 -3.88538,3.18859 -1.39978,0.93531 -2.87738,1.72509 -4.43274,2.36935 -1.55536,0.64425 -3.15857,1.1306 -4.80969,1.45904 -1.65119,0.32843 -3.31854,0.49266 -5.00202,0.49266 H 25.639494 c -1.683512,0 -3.350851,-0.16421 -5.002018,-0.49266 -1.651165,-0.32844 -3.254431,-0.81479 -4.809794,-1.45904 -1.555364,-0.64426 -3.03294,-1.43404 -4.43273,-2.36934 -1.399789,-0.93531 -2.6948959,-1.99818 -3.8853185,-3.1886 -1.1904239,-1.19043 -2.2532906,-2.48554 -3.1886,-3.88533 C 3.3857236,115.4027 2.5959425,113.92513 1.95169,112.36977 1.3074374,110.8144 0.82109272,109.21114 0.49265561,107.55997 0.16421852,105.90881 0,104.24148 0,102.55797 V 25.639494 C 0,23.955982 0.16421852,22.288643 0.49265561,20.637476 0.82109272,18.986311 1.3074374,17.383045 1.95169,15.827682 2.5959425,14.272318 3.3857234,12.794742 4.321033,11.394952 5.2563429,9.995163 6.3192096,8.7000561 7.5096335,7.5096335 8.7000561,6.3192096 9.995163,5.2563429 11.394953,4.3210335 12.794743,3.3857236 14.272319,2.5959425 15.827683,1.95169 17.383047,1.3074374 18.986311,0.82109272 20.637476,0.49265561 22.288643,0.16421852 23.955982,0 25.639494,0 Z"
                   style="fill:#f2f6ff;fill-opacity:1;fill-rule:evenodd;stroke:none"
                   id="path440"
                   inkscape:connector-curvature="0" /><path
                   d="M 25.639494,0 H 562.52917 c 1.68348,0 3.35083,0.16421852 5.00202,0.49265561 1.65112,0.32843711 3.25439,0.81478179 4.80975,1.45903439 1.55536,0.6442525 3.0329,1.4340334 4.43268,2.369343 1.39984,0.9353099 2.69495,1.9981766 3.88538,3.1886005 1.19043,1.1904226 2.25323,2.4855295 3.18847,3.8853195 0.93537,1.39979 1.72516,2.877366 2.36945,4.43273 0.64423,1.555364 1.13061,3.158628 1.45904,4.809793 0.32843,1.651167 0.49268,3.318506 0.49268,5.002018 v 76.918476 c 0,1.68351 -0.16425,3.35084 -0.49274,5.002 -0.32843,1.65117 -0.81475,3.25443 -1.45904,4.8098 -0.64423,1.55536 -1.43402,3.03293 -2.36939,4.43272 -0.93524,1.39979 -1.99804,2.6949 -3.18847,3.88533 -1.19043,1.19042 -2.48554,2.25328 -3.88538,3.18859 -1.39978,0.93531 -2.87738,1.72509 -4.43274,2.36935 -1.55536,0.64425 -3.15857,1.1306 -4.80969,1.45904 -1.65119,0.32843 -3.31854,0.49266 -5.00202,0.49266 H 25.639494 c -1.683512,0 -3.350851,-0.16421 -5.002018,-0.49266 -1.651165,-0.32844 -3.254431,-0.81479 -4.809794,-1.45904 -1.555364,-0.64426 -3.03294,-1.43404 -4.43273,-2.36934 -1.399789,-0.93531 -2.6948959,-1.99818 -3.8853185,-3.1886 -1.1904239,-1.19043 -2.2532906,-2.48554 -3.1886,-3.88533 C 3.3857236,115.4027 2.5959425,113.92513 1.95169,112.36977 1.3074374,110.8144 0.82109272,109.21114 0.49265561,107.55997 0.16421852,105.90881 0,104.24148 0,102.55797 V 25.639494 C 0,23.955982 0.16421852,22.288643 0.49265561,20.637476 0.82109272,18.986311 1.3074374,17.383045 1.95169,15.827682 2.5959425,14.272318 3.3857234,12.794742 4.321033,11.394952 5.2563429,9.995163 6.3192096,8.7000561 7.5096335,7.5096335 8.7000561,6.3192096 9.995163,5.2563429 11.394953,4.3210335 12.794743,3.3857236 14.272319,2.5959425 15.827683,1.95169 17.383047,1.3074374 18.986311,0.82109272 20.637476,0.49265561 22.288643,0.16421852 23.955982,0 25.639494,0 Z"
                   style="fill:none;stroke:#1a1a1a;stroke-width:1;stroke-linecap:butt;stroke-linejoin:miter;stroke-miterlimit:10;stroke-dasharray:none;stroke-opacity:1"
                   id="path442"
                   inkscape:connector-curvature="0" /></g></g></g></g></g></g><g
       id="g444"><g
         id="g446"
         clip-path="url(#clipPath450)"><g
           id="g452"
           transform="matrix(0,-1.4799347,1.4810537,0,1676.9058,1042.3315)"><text
             transform="translate(38.074448,79.188858)"
             style="font-variant:normal;font-weight:normal;font-size:64px;font-family:Roboto;-inkscape-font-specification:RobotoMono-Regular;writing-mode:lr-tb;fill:#1a1a1a;fill-opacity:1;fill-rule:nonzero;stroke:none"
             id="text456"><tspan
               x="0 38.40625 76.8125 115.21875 153.625 192.03125 230.4375 268.84375 307.25 345.65625 384.0625 422.46875 460.875"
               y="0"
               sodipodi:role="line"
               id="tspan454">Conv1D(64, 3)</tspan></text>
</g></g></g><g
       id="g458"><g
         id="g460"
         clip-path="url(#clipPath464)"><g
           id="g466"
           clip-path="url(#clipPath470)"><g
             id="g472"
             clip-path="url(#clipPath476)"><g
               id="g478"
               clip-path="url(#clipPath482)"><g
                 id="g484"
                 transform="matrix(0,-1.4801755,1.4810537,0,1842.6656,926.61304)"><path
                   d="M 0,0 H 418.98386 V 128.19746 H 0 Z"
                   style="fill:#f2f6ff;fill-opacity:1;fill-rule:nonzero;stroke:none"
                   id="path486"
                   inkscape:connector-curvature="0" /><path
                   d="M 0,0 H 418.98386 V 128.19746 H 0 Z"
                   style="fill:none;stroke:#1a1a1a;stroke-width:1;stroke-linecap:butt;stroke-linejoin:miter;stroke-miterlimit:10;stroke-dasharray:none;stroke-opacity:1"
                   id="path488"
                   inkscape:connector-curvature="0" /></g></g></g></g></g></g><g
       id="g490"><g
         id="g492"
         clip-path="url(#clipPath496)"><g
           id="g498"
           transform="matrix(0,-1.4799347,1.4810537,0,1852.1591,917.11804)"><text
             transform="translate(30.282042,79.188858)"
             style="font-variant:normal;font-weight:normal;font-size:64px;font-family:Roboto;-inkscape-font-specification:RobotoMono-Regular;writing-mode:lr-tb;fill:#1a1a1a;fill-opacity:1;fill-rule:nonzero;stroke:none"
             id="text502"><tspan
               x="0 38.40625 76.8125 115.21875 153.625 192.03125 230.4375 268.84375 307.25"
               y="0"
               sodipodi:role="line"
               id="tspan500">BN + ReLU</tspan></text>
</g><g
           id="g504"
           transform="matrix(1.4810537,0,0,1.4801755,773.07483,616.52032)"><path
             d="M 0.79999995,0 C 60.505527,0 90.358292,0 150.06383,0"
             style="fill:none;stroke:#333333;stroke-width:1;stroke-linecap:butt;stroke-linejoin:miter;stroke-miterlimit:10;stroke-dasharray:none;stroke-opacity:1"
             id="path506"
             inkscape:connector-curvature="0" /></g><g
           id="g508"
           transform="matrix(1.4810537,0,0,1.4801755,1037.5509,616.52032)"><path
             d="M -35.636364,-17.818182 0,0 -35.636364,17.818182 Z"
             style="fill:#333333;fill-opacity:1;fill-rule:nonzero;stroke:none"
             id="path510"
             inkscape:connector-curvature="0" /></g><g
           id="g512"
           transform="matrix(1.4810537,0,0,1.4801755,1402.7946,616.52032)"><path
             d="M 0.79999995,0 C 60.545021,0 90.417534,0 150.16255,0"
             style="fill:none;stroke:#333333;stroke-width:1;stroke-linecap:butt;stroke-linejoin:miter;stroke-miterlimit:10;stroke-dasharray:none;stroke-opacity:1"
             id="path514"
             inkscape:connector-curvature="0" /></g><g
           id="g516"
           transform="matrix(1.4810537,0,0,1.4801755,1667.4168,616.52032)"><path
             d="M -35.636364,-17.818182 0,0 -35.636364,17.818182 Z"
             style="fill:#333333;fill-opacity:1;fill-rule:nonzero;stroke:none"
             id="path518"
             inkscape:connector-curvature="0" /></g><g
           id="g520"
           transform="matrix(1.4810537,0,0,1.4801755,2032.5454,616.52032)"><path
             d="m 0.80000001,-4 h 0.10604364 c 0.53043285,2e-7 1.04067715,0.1014943 1.53073325,0.3044822 0.4900563,0.2029879 0.9226207,0.4920182 1.2976935,0.8670907 0.3750724,0.3750727 0.6641025,0.8076372 0.8670907,1.2976935 C 4.8045492,-1.0406774 4.9060431,-0.53043294 4.9060435,0 4.9060431,0.53043294 4.8045492,1.0406774 4.6015611,1.5307336 4.3985729,2.0207899 4.1095428,2.4533544 3.7344704,2.8284271 3.3593976,3.2034996 2.9268332,3.4925299 2.4367771,3.6955178 1.9467208,3.8985057 1.4364765,3.9999998 0.90604365,4 H 0.80000001 C 0.26956695,3.9999998 -0.24067757,3.8985057 -0.73073369,3.6955178 -1.2207899,3.4925299 -1.6533543,3.2034996 -2.0284271,2.8284271 -2.4034996,2.4533544 -2.6925299,2.0207899 -2.8955178,1.5307336 -3.0985057,1.0406774 -3.1999998,0.53043294 -3.2,0 c 2e-7,-0.53043294 0.1014943,-1.0406774 0.3044822,-1.5307336 0.2029879,-0.4900563 0.4920182,-0.9226208 0.8670907,-1.2976935 0.3750728,-0.3750725 0.8076372,-0.6641028 1.29769341,-0.8670907 C -0.24067757,-3.8985057 0.26956695,-3.9999998 0.80000001,-4 Z M 17.063862,-4 h 0.0963 c 0.530432,2e-7 1.040676,0.1014943 1.530731,0.3044822 0.490055,0.2029879 0.922619,0.4920182 1.297693,0.8670907 0.375071,0.3750727 0.664101,0.8076372 0.867091,1.2976935 0.202987,0.4900562 0.304483,1.00030066 0.304485,1.5307336 -2e-6,0.53043294 -0.101498,1.0406774 -0.304485,1.5307336 -0.20299,0.4900563 -0.49202,0.9226208 -0.867091,1.2976935 C 19.613514,3.2034996 19.18095,3.4925299 18.690895,3.6955178 18.20084,3.8985057 17.690596,3.9999998 17.160164,4 h -0.0963 C 16.53343,3.9999998 16.023184,3.8985057 15.533128,3.6955178 15.04307,3.4925299 14.610505,3.2034996 14.235434,2.8284271 13.86036,2.4533544 13.571329,2.0207899 13.368342,1.5307336 13.165355,1.0406774 13.063861,0.53043294 13.063862,0 c -1e-6,-0.53043294 0.101493,-1.0406774 0.30448,-1.5307336 0.202987,-0.4900563 0.492018,-0.9226208 0.867092,-1.2976935 0.375071,-0.3750725 0.807636,-0.6641028 1.297693,-0.8670907 C 16.023184,-3.8985057 16.533428,-3.9999998 17.063862,-4 Z m 16.099655,0 h 0.09798 c 0.53043,2e-7 1.040673,0.1014943 1.530728,0.3044822 0.490055,0.2029879 0.922619,0.4920182 1.297699,0.8670907 0.375072,0.3750727 0.664101,0.8076372 0.867088,1.2976935 C 37.16,-1.0406774 37.261494,-0.53043294 37.261497,0 37.261494,0.53043294 37.16,1.0406774 36.957012,1.5307336 36.754025,2.0207899 36.464996,2.4533544 36.089924,2.8284271 35.714844,3.2034996 35.282276,3.4925299 34.792221,3.6955178 34.302166,3.8985057 33.791927,3.9999998 33.261497,4 h -0.09798 C 32.63308,3.9999998 32.122833,3.8985057 31.632778,3.6955178 31.142721,3.4925299 30.710155,3.2034996 30.335085,2.8284271 29.960011,2.4533544 29.670982,2.0207899 29.467997,1.5307336 29.265009,1.0406774 29.163515,0.53043294 29.163517,0 c -2e-6,-0.53043294 0.10149,-1.0406774 0.304476,-1.5307336 0.202987,-0.4900563 0.492018,-0.9226208 0.867092,-1.2976935 0.37507,-0.3750725 0.807636,-0.6641028 1.297693,-0.8670907 C 32.122833,-3.8985057 32.63308,-3.9999998 33.163517,-4 Z m 16.04097,0 h 0.09887 c 0.53043,2e-7 1.040672,0.1014943 1.530724,0.3044822 0.490055,0.2029879 0.922622,0.4920182 1.297699,0.8670907 0.375068,0.3750727 0.664096,0.8076372 0.867084,1.2976935 C 53.201859,-1.0406774 53.303356,-0.53043294 53.30336,0 53.303356,0.53043294 53.201859,1.0406774 52.998867,1.5307336 52.795883,2.0207899 52.506855,2.4533544 52.131786,2.8284271 51.75671,3.2034996 51.324142,3.4925299 50.834087,3.6955178 50.344032,3.8985057 49.83379,3.9999998 49.30336,4 H 49.20449 C 48.674049,3.9999998 48.163803,3.8985057 47.673744,3.6955178 47.183689,3.4925299 46.751125,3.2034996 46.376057,2.8284271 46.000984,2.4533544 45.711952,2.0207899 45.508961,1.5307336 45.305977,1.0406774 45.204483,0.53043294 45.204487,0 c -4e-6,-0.53043294 0.10149,-1.0406774 0.304474,-1.5307336 0.202991,-0.4900563 0.492023,-0.9226208 0.867096,-1.2976935 0.375068,-0.3750725 0.807632,-0.6641028 1.297687,-0.8670907 C 48.163803,-3.8985057 48.674049,-3.9999998 49.204487,-4 Z m 16.027027,0 h 0.09949 c 0.530434,2e-7 1.040673,0.1014943 1.530731,0.3044822 0.490052,0.2029879 0.922616,0.4920182 1.297692,0.8670907 0.375068,0.3750727 0.6641,0.8076372 0.867088,1.2976935 C 69.2295,-1.0406774 69.330994,-0.53043294 69.331001,0 69.330994,0.53043294 69.2295,1.0406774 69.026512,1.5307336 68.823524,2.0207899 68.534492,2.4533544 68.159424,2.8284271 67.784348,3.2034996 67.351784,3.4925299 66.861732,3.6955178 66.371674,3.8985057 65.861435,3.9999998 65.331001,4 h -0.09949 C 64.70108,3.9999998 64.190834,3.8985057 63.700775,3.6955178 63.21072,3.4925299 62.778156,3.2034996 62.403084,2.8284271 62.028008,2.4533544 61.738976,2.0207899 61.535984,1.5307336 61.333,1.0406774 61.23151,0.53043294 61.231514,0 c -4e-6,-0.53043294 0.101486,-1.0406774 0.30447,-1.5307336 0.202992,-0.4900563 0.492024,-0.9226208 0.8671,-1.2976935 0.375072,-0.3750725 0.807636,-0.6641028 1.297691,-0.8670907 C 64.190834,-3.8985057 64.70108,-3.9999998 65.231514,-4 Z m 16.029633,0 h 0.10025 6.8e-5 c 0.530434,2e-7 1.040673,0.1014943 1.530724,0.3044822 0.490051,0.2029879 0.922615,0.4920182 1.297691,0.8670907 0.375069,0.3750727 0.664101,0.8076372 0.867089,1.2976935 0.202995,0.4900562 0.304489,1.00030066 0.304496,1.5307336 -7e-6,0.53043294 -0.101501,1.0406774 -0.304496,1.5307336 C 84.853981,2.0207899 84.564949,2.4533544 84.18988,2.8284271 83.814804,3.2034996 83.38224,3.4925299 82.892189,3.6955178 82.402138,3.8985057 81.891899,3.9999998 81.361465,4 h -6.8e-5 -0.10025 c -0.530434,-2e-7 -1.04068,-0.1014943 -1.530739,-0.3044822 C 79.240349,3.4925299 78.807777,3.2034996 78.432709,2.8284271 78.057632,2.4533544 77.7686,2.0207899 77.565613,1.5307336 77.362633,1.0406774 77.261139,0.53043294 77.261147,0 c -8e-6,-0.53043294 0.101486,-1.0406774 0.304466,-1.5307336 0.202987,-0.4900563 0.492019,-0.9226208 0.867096,-1.2976935 0.375068,-0.3750725 0.80764,-0.6641028 1.297699,-0.8670907 C 80.220467,-3.8985057 80.730713,-3.9999998 81.261147,-4 Z m 16.03025,0 h 0.101074 c 0.530419,2e-7 1.040657,0.1014943 1.530716,0.3044822 0.490059,0.2029879 0.922623,0.4920182 1.297703,0.8670907 0.37507,0.3750727 0.6641,0.8076372 0.86709,1.2976935 0.20298,0.4900562 0.30448,1.00030066 0.30449,1.5307336 -1e-5,0.53043294 -0.10151,1.0406774 -0.30449,1.5307336 -0.20299,0.4900563 -0.49202,0.9226208 -0.86709,1.2976935 C 99.84581,3.2034996 99.413246,3.4925299 98.923187,3.6955178 98.433128,3.8985057 97.92289,3.9999998 97.392471,4 H 97.291397 C 96.760963,3.9999998 96.25071,3.8985057 95.760643,3.6955178 95.270592,3.4925299 94.838036,3.2034996 94.462967,2.8284271 94.087891,2.4533544 93.798859,2.0207899 93.595871,1.5307336 93.392883,1.0406774 93.291389,0.53043294 93.291397,0 c -8e-6,-0.53043294 0.101486,-1.0406774 0.304474,-1.5307336 0.202988,-0.4900563 0.49202,-0.9226208 0.867096,-1.2976935 0.375069,-0.3750725 0.807625,-0.6641028 1.297676,-0.8670907 C 96.25071,-3.8985057 96.760963,-3.9999998 97.291397,-4 Z m 16.014393,0 h 0.10104 c 0.53043,2e-7 1.04067,0.1014943 1.53072,0.3044822 0.49006,0.2029879 0.92262,0.4920182 1.2977,0.8670907 0.37507,0.3750727 0.66409,0.8076372 0.86708,1.2976935 0.20299,0.4900562 0.30449,1.00030066 0.3045,1.5307336 -1e-5,0.53043294 -0.10151,1.0406774 -0.30449,1.5307336 -0.203,0.4900563 -0.49202,0.9226208 -0.86709,1.2976935 -0.37508,0.3750725 -0.80764,0.6641028 -1.2977,0.8670907 C 114.4475,3.8985057 113.93726,3.9999998 113.40683,4 h -0.10104 c -0.53044,-2e-7 -1.04069,-0.1014943 -1.53075,-0.3044822 -0.49006,-0.2029879 -0.92262,-0.4920182 -1.29768,-0.8670907 -0.37508,-0.3750727 -0.66411,-0.8076372 -0.8671,-1.2976935 C 109.40727,1.0406774 109.30579,0.53043294 109.30579,0 c 0,-0.53043294 0.10148,-1.0406774 0.30447,-1.5307336 0.20299,-0.4900563 0.49202,-0.9226208 0.8671,-1.2976935 0.37506,-0.3750725 0.80762,-0.6641028 1.29768,-0.8670907 0.49006,-0.2029879 1.00031,-0.304482 1.53075,-0.3044822 z m 16.01011,0 h 0.0996 c 0.53042,2e-7 1.04066,0.1014943 1.53073,0.3044822 0.49003,0.2029879 0.92261,0.4920182 1.29768,0.8670907 0.37508,0.3750727 0.66409,0.8076372 0.86708,1.2976935 0.20299,0.4900562 0.30449,1.00030066 0.30451,1.5307336 -2e-5,0.53043294 -0.10152,1.0406774 -0.30451,1.5307336 -0.20299,0.4900563 -0.492,0.9226208 -0.86708,1.2976935 -0.37507,0.3750725 -0.80765,0.6641028 -1.2977,0.8670907 C 130.45619,3.8985057 129.94595,3.9999998 129.41553,4 h -0.0996 c -0.53044,-2e-7 -1.04069,-0.1014943 -1.53074,-0.3044822 C 127.29511,3.4925299 126.86255,3.2034996 126.48748,2.8284271 126.1124,2.4533544 125.82336,2.0207899 125.62038,1.5307336 125.41738,1.0406774 125.31589,0.53043294 125.3159,0 c -1e-5,-0.53043294 0.10148,-1.0406774 0.30448,-1.5307336 0.20298,-0.4900563 0.49202,-0.9226208 0.8671,-1.2976935 0.37507,-0.3750725 0.80763,-0.6641028 1.29768,-0.8670907 0.49005,-0.2029879 1.0003,-0.304482 1.53074,-0.3044822 z"
             style="fill:#333333;fill-opacity:1;fill-rule:nonzero;stroke:none"
             id="path522"
             inkscape:connector-curvature="0" /></g><g
           id="g524"
           transform="matrix(1.4810537,0,0,1.4801755,2281.834,616.52032)"><path
             d="M -35.636364,-17.818182 0,0 -35.636364,17.818182 Z"
             style="fill:#333333;fill-opacity:1;fill-rule:nonzero;stroke:none"
             id="path526"
             inkscape:connector-curvature="0" /></g></g></g><g
       id="g528"><g
         id="g530"
         clip-path="url(#clipPath534)"><g
           id="g536"
           clip-path="url(#clipPath540)"><g
             id="g542"
             clip-path="url(#clipPath546)"><g
               id="g548"
               clip-path="url(#clipPath552)"><g
                 id="g554"
                 transform="matrix(1.4810537,0,0,1.4801755,2199.2571,306.45013)"><path
                   d="m 71.930328,-8 h 8 V 8 h -8 z m 16,0 h 8 V 8 h -8 z m 16.000002,0 h 8 V 8 h -8 z m 16,0 h 8 V 8 h -8 z m 16,0 h 8 V 8 h -8 z m 16,0 h 8 V 8 h -8 z m 16,0 h 8 V 8 h -8 z m 16,0 h 8 V 8 h -8 z m 16,0 h 8 V 8 h -8 z m 16,0 h 7.79101 l 0.2168,3.786e-4 -0.0289,15.9999743 L 223.72134,8 h -7.79101 z m 17.09386,0.6804757 c 3.02003,0.444191 5.99302,1.1013131 8.91896,1.9713659 L 237.38275,9.988163 C 235.1891,9.3358603 232.96016,8.8431959 230.69594,8.5101719 Z m 17.51223,5.2150493 c 2.78884,1.28858207 5.47084,2.7704855 8.04601,4.4457106 L 249.85764,15.75309 c -1.93067,-1.255952 -3.94143,-2.366968 -6.03228,-3.333049 z m 15.33266,9.9655189 c 2.3071,2.022873 4.4574,4.2005721 6.45093,6.5330971 l -12.16297,10.395292 c -1.49453,-1.748681 -3.10666,-3.381327 -4.83635,-4.897942 z M 277.7518,21.757288 c 1.63919,2.591648 3.08441,5.28731 4.33566,8.086983 l -14.60748,6.528501 c -0.93802,-2.098842 -2.02151,-4.119774 -3.25046,-6.062795 z m 7.47348,16.727346 c 0.83414,2.940796 1.45419,5.926094 1.86017,8.955895 l -15.85828,2.124855 c -0.30438,-2.271591 -0.76925,-4.509808 -1.39465,-6.714653 z m 2.42639,17.941456 v 7.999996 h -16 V 56.42609 Z m 0,15.999996 v 8 h -16 v -8 z m 0,16 v 8.000008 h -16 v -8.000008 z m 0,16.000004 v 8 h -16 v -8 z m 0,16 v 8 h -16 v -8 z m 0,16 v 8 h -16 v -8 z m 0,16 v 8 h -16 v -8 z m 0,16 v 8 h -16 v -8 z m 0,16 v 8 h -16 v -8 z m 0,16 v 8 h -16 v -8 z m 0,16 v 8 h -16 v -8 z m 0,16 v 8 h -16 v -8 z m 0,16 v 8 h -16 v -8 z m 0,16 v 8 h -16 v -8 z m 0,16.00003 v 7.99997 h -16 v -7.99997 z m 0,15.99997 v 8 h -16 v -8 z m 0,16 v 8 h -16 v -8 z m 0,16 v 8 h -16 v -8 z m 0,16 v 8 h -16 v -8 z m 0,16 v 2.62744 c 0,2.01916 -0.0954,4.03381 -0.28631,6.04394 l -15.92835,-1.51251 c 0.1431,-1.50708 0.21466,-3.01755 0.21466,-4.53143 v -2.62744 z m -1.80832,17.72525 c -0.72689,2.99084 -1.66491,5.91403 -2.81402,8.76953 l -14.8432,-5.97321 c 0.86151,-2.14081 1.56479,-4.33249 2.1098,-6.57501 z m -6.81411,16.96658 c -1.53733,2.6517 -3.25644,5.17978 -5.15741,7.58426 l -12.55127,-9.92297 c 1.42517,-1.80268 2.71405,-3.69806 3.86663,-5.68613 z m -11.35065,14.35596 c -2.22244,2.10452 -4.58392,4.03952 -7.08444,5.80496 l -9.22821,-13.07056 c 1.87465,-1.32354 3.64508,-2.77423 5.31131,-4.35208 z m -14.954,10.55246 c -2.72725,1.38833 -5.53973,2.57476 -8.43747,3.55929 l -5.1473,-15.14941 c 2.17253,-0.73816 4.28129,-1.62775 6.32626,-2.66873 z m -17.23806,5.86563 c -3.027,0.56674 -6.07906,0.91296 -9.15619,1.0386 l -0.6528,-15.98669 c 2.3069,-0.0942 4.59504,-0.35376 6.86444,-0.77866 z m -17.42455,1.09189 h -8 v -16 h 8 z m -16,0 h -8 v -16 h 8 z m -16,0 h -8 v -16 h 8 z m -16,0 h -8 v -16 h 8 z m -16,0 h -8 v -16 h 8 z m -16,0 h -8 v -16 h 8 z m -16,0 h -8 v -16 h 8 z m -16,0 h -7.999999 v -16 h 7.999999 z m -15.999999,0 h -8 v -16 h 8 z m -16,0 h -8 v -16 h 8 z m -16,0 h -2.131649 c -2.209575,3e-5 -4.4132,-0.11423 -6.610874,-0.34272 l 1.654503,-15.91424 c 1.647762,0.17129 3.299888,0.25696 4.956371,0.25696 h 2.131649 z m -17.77539,-1.94355 c -2.983433,-0.7529 -5.897278,-1.71618 -8.741532,-2.88986 l 6.103104,-14.79028 c 2.132389,0.87991 4.316891,1.60211 6.553497,2.16653 z m -16.914526,-6.9682 c -2.636527,-1.56021 -5.147976,-3.30096 -7.53435,-5.22229 l 10.034073,-12.46264 c 1.789072,1.44046 3.671944,2.74551 5.648619,3.91522 z M 9.1202679,406.59549 c -2.0837512,-2.24008 -3.9968553,-4.61758 -5.7393127,-7.13248 l 13.1517198,-9.11218 c 1.306291,1.88538 2.740526,3.66776 4.302704,5.34714 z M -1.2974396,391.55035 c -1.3652286,-2.74166 -2.527435,-5.56683 -3.4866199,-8.47555 L 10.411066,378.064 c 0.719136,2.18075 1.590479,4.29888 2.61403,6.3544 z m -5.7143235,-17.2995 c -0.5381579,-3.02511 -0.8565783,-6.07318 -0.9552607,-9.14416 l 15.9917459,-0.51386 c 0.073986,2.30246 0.3127174,4.58768 0.7161932,6.85572 z M -8,356.89844 v -8 H 8 v 8 z m 0,-16 v -8 H 8 v 8 z m 0,-16 v -8 H 8 v 8 z m 0,-16 v -8 H 8 v 8 z m 0,-16 v -8 H 8 v 8 z m 0,-16 v -8 H 8 v 8 z m 0,-16 v -8 H 8 v 8 z m 0,-16 v -7.99999 H 8 v 7.99999 z m 0,-15.99999 v -8 H 8 v 8 z m 0,-16 v -8 H 8 v 8 z m 0,-16 v -7.99998 H 8 v 7.99998 z m 0,-15.99998 v -8 H 8 v 8 z m 0,-16.00002 v -8 H 8 v 8 z m 0,-16 v -8 H 8 v 8 z m 0,-16 v -7.99998 H 8 v 7.99998 z m 0,-15.99998 v -8 H 8 v 8 z m 0,-16 V 92.898468 H 8 v 8.000002 z m 0,-16.000002 v -8 H 8 v 8 z m 0,-16 v -8 H 8 v 8 z m 0.089789,-16.355244 c 0.1630492,-3.073169 0.5460062,-6.118679 1.1488709,-9.136535 l 15.6899972,3.13433 c -0.451984,2.26257 -0.7390972,4.545872 -0.8613391,6.849907 z m 3.5713463,-17.936851 c 1.0196399,-2.881869 2.239702,-5.676224 3.66018674,-8.383066 L 13.488998,33.658154 c -1.064978,2.029399 -1.979693,4.124404 -2.744145,6.285018 z M 4.1640801,18.415768 c 1.7971363,-2.479862 3.762321,-4.81851 5.8955549,-7.015946 l 11.480171,11.14476 c -1.599344,1.647477 -3.072698,3.400828 -4.420063,5.260052 z M 16.90546,5.2929287 C 19.334726,3.4207599 21.8855,1.7321472 24.557785,0.22709036 L 32.409481,14.168068 c -2.003485,1.128381 -3.915876,2.394384 -5.737171,3.798008 z m 15.896862,-8.9627831 c 2.865433,-1.111933 5.795811,-2.0125434 8.79113,-2.7018321 L 45.181618,9.2207813 C 42.935921,9.737565 40.738914,10.412785 38.590599,11.246441 Z M 50.674328,-7.7835727 C 52.423359,-7.9278574 54.175362,-8 55.930332,-8 h 8 V 8 h -8 c -1.315754,0 -2.629276,0.054087 -3.940567,0.162261 z"
                   style="fill:#1a1a1a;fill-opacity:1;fill-rule:nonzero;stroke:none"
                   id="path556"
                   inkscape:connector-curvature="0" /></g></g></g></g></g></g></g></svg>